<svg width="1921" height="811" viewBox="0 0 1921 811" fill="none" xmlns="http://www.w3.org/2000/svg">
<g opacity="0.9">
<path d="M0.000488281 766.376C0.000520545 825.503 6.2966 804.838 238.455 811L1920 811C1919.26 770 1925.28 605.234 1788.3 555.529L300.974 22.0103C137.23 -35.6793 7.93236 26.4512 0.000366211 133.834L0.000488281 766.376Z" fill="#C8C8C8"/>
<path d="M0.000488281 766.376C1.61804 825.535 7.30379 804.865 238.455 811L1920 811C1919.26 770 1930.11 609.262 1793.54 564.269L311.682 47.0997C147.071 -9.82875 6.30884 26.4183 0.000366211 133.834L0.000488281 766.376Z" fill="#8A8A8A"/>
<path d="M0.000488281 766.376C1.5856 825.814 7.80739 804.878 238.455 811L1920 811C1920 767.5 1925.02 620.588 1793.54 572.282L298.167 81.8258C131.353 26.8993 2.07597 26.3676 0.000366211 133.834L0.000488281 766.376Z" fill="#4A4A4A"/>
<path fill-rule="evenodd" clip-rule="evenodd" d="M358.403 531.29C353.414 523.965 355.908 515.942 355.285 513.5C354.661 511.059 354.661 501.641 325.975 501.99C303.026 502.269 288.142 511.407 283.569 515.942C276.501 521.407 258.125 533.243 241.163 536.871C219.96 541.405 215.595 543.149 209.359 552.916C204.37 560.729 212.685 571.519 217.466 575.937C219.96 583.495 224.7 601.121 223.702 611.167C222.455 623.724 209.982 660.349 206.241 668.023C202.499 675.697 203.123 688.952 226.82 703.253C250.517 717.554 269.226 723.833 279.204 726.274C289.181 728.716 331.587 739.529 372.746 740.924C413.905 742.32 412.197 739.391 421.388 734.995C423.758 733.861 436.355 727.321 436.355 712.671C440.72 709.415 456.73 703.721 463.333 702.417C473.935 700.325 506.362 694.744 520.542 690.696C532.352 687.325 547.358 679.883 549.852 677.092C552.347 674.302 557.336 673.255 555.465 643.258C553.968 619.259 571.218 616.959 585.561 612.773L600.528 609.285L607.388 606.495L611.13 602.658L611.753 598.123L609.259 593.24L600.528 589.054L589.764 586.402C575.836 582.797 544.365 575.658 529.897 575.937C511.812 576.286 510.565 567.217 511.188 565.822C511.812 564.427 524.908 552.218 524.908 547.684C524.908 543.149 527.402 544.544 524.908 532.336C522.413 520.128 503.082 518.384 491.856 520.128C480.631 521.872 438.849 534.778 437.602 535.475C436.355 536.173 414.425 542.231 408.916 543.149C403.466 544.058 383.51 545.802 373.993 541.962C369.194 539.59 362.185 536.843 358.403 531.29ZM440.878 670.609C441.213 668.064 442.091 665.052 444.001 662.304C447.493 657.282 456.681 651.607 460.839 649.398C461.878 648.701 463.333 646.957 460.839 645.561C457.721 643.817 445.248 641.376 444.001 639.632C442.754 637.888 444.625 629.516 440.883 621.145C437.141 612.773 434.647 604.053 428.411 603.007C422.175 601.96 394.112 600.914 387.252 600.914C380.392 600.914 367.296 600.216 359.189 589.054C352.704 580.125 351.914 577.427 352.329 577.195L332.374 587.659L307.429 604.751L301.193 615.215L299.322 633.353C291.631 635.213 274.003 641.236 265.023 650.445C259.577 656.03 260.431 660.443 263.106 663.466C259.936 660.661 258.51 657.177 258.164 654.979L251.927 682.884C258.503 693.918 262.19 700.104 268.765 711.138L312.418 726.834L379.768 731.02L399.101 722.997C398.921 722.041 398.694 720.925 398.425 719.705C398.648 719.629 396.184 711.804 396.406 711.726C396.55 711.675 398.611 719.572 398.755 719.521C423.992 710.548 441.507 694.57 441.507 676.606C441.507 674.577 441.293 672.576 440.878 670.609Z" fill="#4A4A4A"/>
<path d="M263.527 663.916C261.654 667.971 260.658 672.223 260.658 676.606C260.658 704.539 301.142 727.183 351.082 727.183C368.44 727.183 384.655 724.448 398.425 719.705C398.694 720.925 398.921 722.041 399.101 722.997L379.768 731.02L312.418 726.834L268.765 711.138C262.19 700.104 258.503 693.918 251.927 682.884L258.164 654.979C258.51 657.177 259.936 660.661 263.106 663.466C263.242 663.62 263.383 663.77 263.527 663.916Z" fill="#4A4A4A"/>
<path d="M269.389 667.536C275.664 669.371 287.126 670.56 296.12 665.899C296.359 665.774 296.597 665.646 296.833 665.513C299.007 664.292 301.02 662.71 302.759 660.69C303.306 660.274 303.86 659.862 304.42 659.453L304.799 659.178C315.4 659.527 340.73 662.374 356.695 671.025C376.65 681.838 385.381 693.349 390.37 698.232C393.785 701.575 396.835 712.476 398.425 719.705C384.655 724.448 368.44 727.183 351.082 727.183C301.142 727.183 260.658 704.539 260.658 676.606C260.658 672.223 261.654 667.971 263.527 663.916C265.231 665.64 267.504 666.862 269.389 667.536Z" fill="#4A4A4A"/>
<path d="M360.557 654.294C365.289 655.221 370.149 656.257 375.059 657.373C385.632 668.752 393.651 688.446 398.755 719.521C398.611 719.572 396.55 711.675 396.406 711.726C386.079 675.669 375.002 663.663 360.557 654.294Z" fill="#4A4A4A"/>
<path d="M375.059 657.373C370.149 656.257 365.289 655.221 360.557 654.294C347.717 645.967 334.338 645.846 322.351 649.775C321.736 649.787 321.136 649.806 320.55 649.833C338.341 641.565 358.809 639.884 375.059 657.373Z" fill="#4A4A4A"/>
<path d="M304.42 659.453L303.236 660.115C303.359 659.962 303.48 659.807 303.6 659.649C306.766 657.319 310.194 655.167 313.817 653.332C310.535 655.217 307.386 657.288 304.42 659.453Z" fill="#4A4A4A"/>
<path d="M320.55 649.833C321.136 649.806 321.736 649.787 322.351 649.775C319.413 650.738 316.559 651.944 313.817 653.332C316.007 652.074 318.256 650.899 320.55 649.833Z" fill="#4A4A4A"/>
<path d="M274.378 667.885C288.721 668.932 293.71 665.444 294.333 665.095L302.241 660.672C300.058 662.352 298.009 664.111 296.12 665.899C287.126 670.56 275.664 669.371 269.389 667.536C267.504 666.862 265.231 665.64 263.527 663.916C263.538 663.895 263.548 663.873 263.558 663.851C266.065 665.911 269.578 667.535 274.378 667.885Z" fill="#4A4A4A"/>
<path d="M296.833 665.513C299.007 664.292 301.02 662.71 302.759 660.69C300.678 662.269 298.697 663.888 296.833 665.513Z" fill="#4A4A4A"/>
<path d="M296.833 665.513C296.597 665.646 296.359 665.774 296.12 665.899C298.009 664.111 300.058 662.352 302.241 660.672L303.236 660.115C303.08 660.31 302.921 660.502 302.759 660.69C300.678 662.269 298.697 663.888 296.833 665.513Z" fill="#4A4A4A"/>
<path d="M303.6 659.649C303.48 659.807 303.359 659.962 303.236 660.115L302.241 660.672C302.689 660.327 303.142 659.986 303.6 659.649Z" fill="#4A4A4A"/>
<path d="M304.42 659.453C303.86 659.862 303.306 660.274 302.759 660.69C302.921 660.502 303.08 660.31 303.236 660.115L304.42 659.453Z" fill="#4A4A4A"/>
<path d="M460.839 649.398C456.681 651.607 447.493 657.282 444.001 662.304C442.091 665.052 441.213 668.064 440.878 670.609C435.576 645.502 397.395 626.028 351.082 626.028C309.019 626.028 273.664 642.093 263.558 663.851C263.403 663.724 263.253 663.596 263.106 663.466C260.431 660.443 259.577 656.03 265.023 650.445C274.003 641.236 291.631 635.213 299.322 633.353L301.193 615.215L307.429 604.751L332.374 587.659L352.329 577.195C351.914 577.427 352.704 580.125 359.189 589.054C367.296 600.216 380.392 600.914 387.252 600.914C394.112 600.914 422.175 601.96 428.411 603.007C434.647 604.053 437.141 612.773 440.883 621.145C444.625 629.516 442.754 637.888 444.001 639.632C445.248 641.376 457.721 643.817 460.839 645.561C463.333 646.957 461.878 648.701 460.839 649.398Z" fill="#FFD9DF"/>
<path d="M294.333 665.095C293.71 665.444 288.721 668.932 274.378 667.885C269.578 667.535 266.065 665.911 263.558 663.851C273.664 642.093 309.019 626.028 351.082 626.028C397.395 626.028 435.576 645.502 440.878 670.609C440.6 672.718 440.695 674.506 440.883 675.559C423.558 669.966 398.726 662.75 375.059 657.373C358.809 639.884 338.341 641.565 320.55 649.833C312.976 650.186 307.787 651.858 306.182 655.328C305.439 656.936 304.57 658.371 303.6 659.649C303.142 659.986 302.689 660.327 302.241 660.672L294.333 665.095Z" fill="#FFD9DF"/>
<path d="M441.507 676.606C441.507 694.57 423.992 710.548 398.755 719.521C393.651 688.446 385.632 668.752 375.059 657.373C398.726 662.75 423.558 669.966 440.883 675.559C440.695 674.506 440.6 672.718 440.878 670.609C441.293 672.576 441.507 674.577 441.507 676.606Z" fill="#FFD9DF"/>
<path d="M390.37 698.232C385.381 693.349 376.65 681.838 356.695 671.025C340.73 662.374 315.4 659.527 304.799 659.178C307.654 657.113 310.675 655.137 313.817 653.332C316.559 651.944 319.413 650.738 322.351 649.775C332.28 649.586 345.798 651.405 360.557 654.294C375.002 663.663 386.079 675.669 396.406 711.726C396.184 711.804 398.648 719.629 398.425 719.705C396.835 712.476 393.785 701.575 390.37 698.232Z" fill="#FFD9DF"/>
<path d="M360.557 654.294C347.717 645.967 334.338 645.846 322.351 649.775C332.28 649.586 345.798 651.405 360.557 654.294Z" fill="#FFD9DF"/>
<path d="M306.182 655.328C307.787 651.858 312.976 650.186 320.55 649.833C318.256 650.899 316.007 652.074 313.817 653.332C310.194 655.167 306.766 657.319 303.6 659.649C304.57 658.371 305.439 656.936 306.182 655.328Z" fill="#FFD9DF"/>
<path d="M0.000244141 811L239.453 811L14.9661 801.517L0.000244141 716.732V811Z" fill="#4A4A4A"/>
<path d="M776.615 438.987H135.08V769.76H776.615V438.987Z" fill="#4A4A4A"/>
</g>
</svg>
