<svg width="241" height="62" viewBox="0 0 241 62" fill="none" xmlns="http://www.w3.org/2000/svg">
<path d="M62 31C62 48.1208 48.1208 62 31 62C13.8792 62 0 48.1208 0 31C0 13.8792 13.8792 0 31 0C48.1208 0 62 13.8792 62 31Z" fill="white"/>
<path d="M85.95 33.002H83.1375V15.7285H88.1062C88.8406 15.7285 89.5671 15.8457 90.2859 16.0801C91.0046 16.3145 91.6453 16.666 92.2078 17.1348C92.7859 17.6035 93.2468 18.1738 93.5906 18.8457C93.95 19.502 94.1296 20.2441 94.1296 21.0723C94.1296 21.9473 93.9812 22.7441 93.6843 23.4629C93.3875 24.166 92.9734 24.7598 92.4421 25.2441C91.9109 25.7285 91.2703 26.1035 90.5203 26.3691C89.7703 26.6348 88.9421 26.7676 88.0359 26.7676H85.95V33.002ZM85.95 17.8613V24.7051H88.5281C88.8718 24.7051 89.2078 24.6504 89.5359 24.541C89.8796 24.416 90.1921 24.2207 90.4734 23.9551C90.7546 23.6895 90.9812 23.3223 91.1531 22.8535C91.325 22.3691 91.4109 21.7754 91.4109 21.0723C91.4109 20.791 91.3718 20.4707 91.2937 20.1113C91.2156 19.7363 91.0515 19.3848 90.8015 19.0566C90.5671 18.7129 90.2312 18.4316 89.7937 18.2129C89.3562 17.9785 88.7781 17.8613 88.0593 17.8613H85.95Z" fill="white"/>
<path d="M100.036 33.002H97.1765V19.7832H100.036V33.002ZM100.294 15.5645C100.294 16.0332 100.13 16.4316 99.8015 16.7598C99.4734 17.0723 99.075 17.2285 98.6062 17.2285C98.1375 17.2285 97.739 17.0645 97.4109 16.7363C97.0984 16.4082 96.9421 16.0176 96.9421 15.5645C96.9421 15.0957 97.1062 14.6973 97.4343 14.3691C97.7625 14.041 98.1531 13.877 98.6062 13.877C99.075 13.877 99.4734 14.041 99.8015 14.3691C100.13 14.6973 100.294 15.0957 100.294 15.5645Z" fill="white"/>
<path d="M114.966 33.002H112.106V25.8066C112.106 25.2754 112.083 24.7676 112.036 24.2832C111.989 23.7988 111.88 23.3691 111.708 22.9941C111.536 22.6191 111.302 22.3301 111.005 22.127C110.708 21.9082 110.294 21.7988 109.762 21.7988C109.591 21.7988 109.364 21.8223 109.083 21.8691C108.817 21.916 108.536 21.9863 108.239 22.0801C107.958 22.1738 107.684 22.291 107.419 22.4316C107.169 22.5723 106.981 22.7363 106.856 22.9238V33.002H104.02V19.7832H106.552L106.856 21.1191C107.044 20.9473 107.278 20.7754 107.559 20.6035C107.856 20.416 108.177 20.252 108.52 20.1113C108.864 19.9707 109.216 19.8613 109.575 19.7832C109.934 19.6895 110.286 19.6426 110.63 19.6426C111.333 19.6426 111.927 19.791 112.411 20.0879C112.895 20.3848 113.38 20.7676 113.864 21.2363C114.13 21.502 114.333 21.8145 114.473 22.1738C114.63 22.5176 114.739 22.8848 114.802 23.2754C114.88 23.6504 114.927 24.0332 114.942 24.4238C114.958 24.8145 114.966 25.1973 114.966 25.5723V33.002Z" fill="white"/>
<path d="M126.544 33.002L121.739 26.6738V33.002H118.88V14.791H121.739V26.0879L125.981 19.7832H129.169L124.528 26.3691L129.778 33.002H126.544Z" fill="white"/>
<path d="M153.262 23.8848C153.262 25.3066 153.106 26.5254 152.794 27.541C152.497 28.541 152.114 29.3848 151.645 30.0723C151.177 30.7441 150.645 31.2754 150.052 31.666C149.473 32.0566 148.911 32.3535 148.364 32.5566C147.817 32.7441 147.317 32.8691 146.864 32.9316C146.411 32.9785 146.075 33.002 145.856 33.002H139.317V15.7285H144.52C145.973 15.7285 147.247 15.9629 148.341 16.4316C149.45 16.8848 150.364 17.4941 151.083 18.2598C151.817 19.0254 152.364 19.9004 152.723 20.8848C153.083 21.8535 153.262 22.8535 153.262 23.8848ZM144.919 30.9395C146.825 30.9395 148.2 30.3301 149.044 29.1113C149.887 27.8926 150.309 26.127 150.309 23.8145C150.309 23.0957 150.223 22.3848 150.052 21.6816C149.88 20.9785 149.544 20.3457 149.044 19.7832C148.559 19.2051 147.895 18.7441 147.052 18.4004C146.208 18.041 145.114 17.8613 143.77 17.8613H142.13V30.9395H144.919Z" fill="white"/>
<path d="M159.966 33.002H157.106V19.7832H159.966V33.002ZM160.223 15.5645C160.223 16.0332 160.059 16.4316 159.731 16.7598C159.403 17.0723 159.005 17.2285 158.536 17.2285C158.067 17.2285 157.669 17.0645 157.341 16.7363C157.028 16.4082 156.872 16.0176 156.872 15.5645C156.872 15.0957 157.036 14.6973 157.364 14.3691C157.692 14.041 158.083 13.877 158.536 13.877C159.005 13.877 159.403 14.041 159.731 14.3691C160.059 14.6973 160.223 15.0957 160.223 15.5645Z" fill="white"/>
<path d="M173.536 29.0879C173.536 29.2129 173.544 29.4004 173.559 29.6504C173.575 29.8848 173.606 30.127 173.653 30.377C173.7 30.627 173.77 30.8535 173.864 31.0566C173.973 31.2598 174.114 31.3926 174.286 31.4551L173.536 33.0254C173.333 33.0254 173.114 32.9785 172.88 32.8848C172.661 32.791 172.442 32.6582 172.223 32.4863C172.02 32.3145 171.841 32.127 171.684 31.9238C171.544 31.7051 171.434 31.4707 171.356 31.2207C171.247 31.4863 171.052 31.7363 170.77 31.9707C170.505 32.1895 170.2 32.3926 169.856 32.5801C169.512 32.752 169.137 32.8848 168.731 32.9785C168.341 33.0723 167.973 33.1191 167.63 33.1191C167.098 33.1191 166.583 33.0488 166.083 32.9082C165.598 32.7676 165.169 32.541 164.794 32.2285C164.419 31.916 164.122 31.502 163.903 30.9863C163.7 30.4707 163.598 29.8379 163.598 29.0879C163.598 28.3691 163.747 27.752 164.044 27.2363C164.356 26.7051 164.747 26.2754 165.216 25.9473C165.7 25.6035 166.247 25.3535 166.856 25.1973C167.466 25.0254 168.083 24.9395 168.708 24.9395H170.7C170.7 24.1738 170.661 23.5645 170.583 23.1113C170.505 22.6582 170.372 22.3301 170.184 22.127C169.997 21.9082 169.762 21.7754 169.481 21.7285C169.216 21.666 168.895 21.6348 168.52 21.6348C168.177 21.6348 167.848 21.6816 167.536 21.7754C167.239 21.8535 166.958 21.9551 166.692 22.0801C166.442 22.1895 166.216 22.3145 166.012 22.4551C165.825 22.5957 165.684 22.7051 165.591 22.7832L164.536 21.166C164.692 20.9941 164.927 20.8223 165.239 20.6504C165.552 20.4629 165.911 20.2988 166.317 20.1582C166.723 20.0176 167.161 19.9082 167.63 19.8301C168.114 19.7363 168.614 19.6895 169.13 19.6895C169.598 19.6895 170.052 19.7363 170.489 19.8301C170.942 19.9238 171.348 20.0801 171.708 20.2988C172.083 20.5176 172.403 20.8145 172.669 21.1895C172.95 21.5488 173.145 22.002 173.255 22.5488C173.364 23.0957 173.434 23.6504 173.466 24.2129C173.512 24.7598 173.536 25.3066 173.536 25.8535V29.0879ZM170.723 26.6035H169.223C168.911 26.6035 168.583 26.6348 168.239 26.6973C167.895 26.7598 167.575 26.877 167.278 27.0488C166.981 27.2207 166.731 27.4707 166.528 27.7988C166.341 28.1113 166.247 28.5176 166.247 29.0176C166.247 29.7988 166.419 30.3613 166.762 30.7051C167.122 31.0488 167.637 31.2207 168.309 31.2207C168.778 31.2207 169.223 31.0957 169.645 30.8457C170.083 30.5957 170.442 30.2598 170.723 29.8379V26.6035Z" fill="white"/>
<path d="M195.473 33.002H192.661V25.8066C192.661 25.2754 192.653 24.7754 192.637 24.3066C192.637 23.8223 192.591 23.3926 192.497 23.0176C192.403 22.6426 192.247 22.3535 192.028 22.1504C191.825 21.9316 191.505 21.8223 191.067 21.8223C190.989 21.8223 190.848 21.8379 190.645 21.8691C190.458 21.8848 190.231 21.9316 189.966 22.0098C189.7 22.0723 189.403 22.1816 189.075 22.3379C188.762 22.4941 188.45 22.6973 188.137 22.9473C188.137 23.5566 188.137 24.041 188.137 24.4004C188.153 24.7598 188.161 25.1504 188.161 25.5723V33.002H185.325V25.8066C185.325 25.2754 185.325 24.7754 185.325 24.3066C185.325 23.8223 185.278 23.3926 185.184 23.0176C185.091 22.6426 184.934 22.3535 184.716 22.1504C184.497 21.9316 184.177 21.8223 183.755 21.8223C183.614 21.8223 183.419 21.8457 183.169 21.8926C182.919 21.9238 182.653 21.9863 182.372 22.0801C182.106 22.1738 181.833 22.291 181.552 22.4316C181.286 22.5723 181.059 22.7363 180.872 22.9238V33.002H178.012V19.7832H180.567L180.872 21.1426C181.262 20.7832 181.762 20.4551 182.372 20.1582C182.997 19.8457 183.645 19.6895 184.317 19.6895C185.067 19.6895 185.692 19.8535 186.192 20.1816C186.692 20.5098 187.192 20.9941 187.692 21.6348C187.958 21.3379 188.255 21.0645 188.583 20.8145C188.911 20.5645 189.247 20.3535 189.591 20.1816C189.95 20.0098 190.302 19.877 190.645 19.7832C190.989 19.6895 191.317 19.6426 191.63 19.6426C192.161 19.6426 192.661 19.752 193.13 19.9707C193.598 20.1738 194.005 20.4707 194.348 20.8613C194.708 21.252 194.981 21.7207 195.169 22.2676C195.372 22.7988 195.473 23.377 195.473 24.002V33.002Z" fill="white"/>
<path d="M205.387 19.7129C206.294 19.7129 207.114 19.8926 207.848 20.252C208.583 20.5957 209.208 21.0723 209.723 21.6816C210.239 22.291 210.637 23.002 210.919 23.8145C211.2 24.627 211.341 25.502 211.341 26.4395C211.341 27.377 211.192 28.2598 210.895 29.0879C210.598 29.9004 210.177 30.6113 209.63 31.2207C209.098 31.8145 208.458 32.2832 207.708 32.627C206.973 32.9551 206.153 33.1191 205.247 33.1191C204.325 33.1191 203.481 32.9473 202.716 32.6035C201.966 32.2598 201.325 31.7832 200.794 31.1738C200.278 30.5645 199.88 29.8535 199.598 29.041C199.317 28.2285 199.177 27.3457 199.177 26.3926C199.177 25.4395 199.325 24.5488 199.622 23.7207C199.934 22.8926 200.356 22.1895 200.887 21.6113C201.434 21.0176 202.091 20.5566 202.856 20.2285C203.622 19.8848 204.466 19.7129 205.387 19.7129ZM205.2 30.8926C205.669 30.8926 206.091 30.7832 206.466 30.5645C206.856 30.3301 207.184 30.0176 207.45 29.627C207.731 29.2207 207.95 28.7441 208.106 28.1973C208.278 27.6504 208.364 27.0645 208.364 26.4395C208.364 25.8145 208.286 25.2285 208.13 24.6816C207.989 24.1348 207.786 23.6582 207.52 23.252C207.27 22.8301 206.958 22.4941 206.583 22.2441C206.208 21.9941 205.786 21.8691 205.317 21.8691C204.848 21.8691 204.419 21.9863 204.028 22.2207C203.637 22.4551 203.302 22.7754 203.02 23.1816C202.755 23.5723 202.544 24.041 202.387 24.5879C202.247 25.1191 202.177 25.6973 202.177 26.3223C202.177 26.9473 202.239 27.541 202.364 28.1035C202.505 28.6504 202.708 29.127 202.973 29.5332C203.239 29.9395 203.552 30.2676 203.911 30.5176C204.286 30.7676 204.716 30.8926 205.2 30.8926Z" fill="white"/>
<path d="M225.966 33.002H223.106V25.8066C223.106 25.2754 223.083 24.7676 223.036 24.2832C222.989 23.7988 222.88 23.3691 222.708 22.9941C222.536 22.6191 222.302 22.3301 222.005 22.127C221.708 21.9082 221.294 21.7988 220.762 21.7988C220.591 21.7988 220.364 21.8223 220.083 21.8691C219.817 21.916 219.536 21.9863 219.239 22.0801C218.958 22.1738 218.684 22.291 218.419 22.4316C218.169 22.5723 217.981 22.7363 217.856 22.9238V33.002H215.02V19.7832H217.552L217.856 21.1191C218.044 20.9473 218.278 20.7754 218.559 20.6035C218.856 20.416 219.177 20.252 219.52 20.1113C219.864 19.9707 220.216 19.8613 220.575 19.7832C220.934 19.6895 221.286 19.6426 221.63 19.6426C222.333 19.6426 222.927 19.791 223.411 20.0879C223.895 20.3848 224.38 20.7676 224.864 21.2363C225.13 21.502 225.333 21.8145 225.473 22.1738C225.63 22.5176 225.739 22.8848 225.802 23.2754C225.88 23.6504 225.927 24.0332 225.942 24.4238C225.958 24.8145 225.966 25.1973 225.966 25.5723V33.002Z" fill="white"/>
<path d="M230.77 31.666C230.177 30.9941 229.739 30.166 229.458 29.1816C229.177 28.1973 229.036 27.2051 229.036 26.2051C229.036 24.9863 229.2 23.9629 229.528 23.1348C229.872 22.3066 230.309 21.6348 230.841 21.1191C231.372 20.6035 231.958 20.2363 232.598 20.0176C233.255 19.7832 233.895 19.666 234.52 19.666C235.286 19.666 235.981 19.7988 236.606 20.0645C237.247 20.3301 237.723 20.6816 238.036 21.1191V14.791H240.895V33.002H238.2C238.169 32.7363 238.137 32.4707 238.106 32.2051C238.091 31.9238 238.067 31.666 238.036 31.4316C237.989 31.6348 237.848 31.8379 237.614 32.041C237.395 32.2441 237.106 32.4316 236.747 32.6035C236.403 32.7598 236.012 32.8848 235.575 32.9785C235.137 33.0723 234.684 33.1191 234.216 33.1191C233.591 33.1191 232.973 33.0098 232.364 32.791C231.77 32.5723 231.239 32.1973 230.77 31.666ZM232.036 26.416C232.036 27.041 232.114 27.627 232.27 28.1738C232.427 28.7051 232.637 29.1738 232.903 29.5801C233.169 29.9863 233.489 30.3066 233.864 30.541C234.255 30.7754 234.677 30.8926 235.13 30.8926C235.614 30.8926 236.044 30.7754 236.419 30.541C236.809 30.291 237.137 29.9629 237.403 29.5566C237.669 29.1504 237.872 28.6738 238.012 28.127C238.153 27.5801 238.223 26.9941 238.223 26.3691C238.223 25.7441 238.145 25.1582 237.989 24.6113C237.848 24.0645 237.637 23.5879 237.356 23.1816C237.091 22.7754 236.762 22.4551 236.372 22.2207C235.997 21.9707 235.567 21.8457 235.083 21.8457C234.598 21.8457 234.169 21.9707 233.794 22.2207C233.419 22.4551 233.098 22.7832 232.833 23.2051C232.583 23.627 232.387 24.1113 232.247 24.6582C232.106 25.2051 232.036 25.791 232.036 26.416Z" fill="white"/>
<path d="M124.946 48.0566C124.946 48.5775 124.835 49.0853 124.614 49.5801C124.406 50.0619 124.106 50.4915 123.716 50.8691C123.325 51.2337 122.843 51.5267 122.27 51.7481C121.697 51.9694 121.046 52.0801 120.317 52.0801C120.005 52.0801 119.679 52.0606 119.341 52.0215C119.015 51.9955 118.683 51.9434 118.344 51.8652C118.006 51.7871 117.68 51.683 117.368 51.5527C117.068 51.4095 116.808 51.2402 116.587 51.0449L116.997 49.3652C117.179 49.4694 117.407 49.5736 117.68 49.6777C117.967 49.7689 118.26 49.86 118.559 49.9512C118.859 50.0293 119.158 50.0944 119.458 50.1465C119.757 50.1986 120.037 50.2246 120.298 50.2246C121.092 50.2246 121.697 50.0423 122.114 49.6777C122.544 49.3001 122.759 48.7468 122.759 48.0176C122.759 47.5749 122.609 47.1973 122.309 46.8848C122.01 46.5723 121.632 46.2923 121.177 46.0449C120.734 45.7845 120.252 45.5306 119.731 45.2832C119.21 45.0228 118.722 44.7233 118.266 44.3848C117.811 44.0332 117.433 43.6231 117.134 43.1543C116.834 42.6856 116.684 42.0996 116.684 41.3965C116.684 40.7585 116.802 40.1921 117.036 39.6973C117.27 39.2025 117.583 38.7858 117.973 38.4473C118.377 38.0957 118.839 37.8288 119.36 37.6465C119.894 37.4642 120.454 37.3731 121.04 37.3731C121.639 37.3731 122.244 37.4316 122.856 37.5488C123.468 37.653 123.963 37.8288 124.341 38.0762C124.262 38.2455 124.171 38.4343 124.067 38.6426C123.963 38.8379 123.865 39.0267 123.774 39.209C123.683 39.3783 123.605 39.5215 123.54 39.6387C123.475 39.7559 123.436 39.821 123.423 39.834C123.344 39.7949 123.253 39.7428 123.149 39.6777C123.058 39.6126 122.921 39.5475 122.739 39.4824C122.557 39.4173 122.316 39.3718 122.016 39.3457C121.717 39.3197 121.333 39.3262 120.864 39.3652C120.604 39.3913 120.356 39.4694 120.122 39.5996C119.887 39.7168 119.679 39.8665 119.497 40.0488C119.315 40.2311 119.171 40.4395 119.067 40.6738C118.963 40.8952 118.911 41.11 118.911 41.3184C118.911 41.8392 119.061 42.2624 119.36 42.5879C119.66 42.9004 120.031 43.1803 120.473 43.4277C120.916 43.6621 121.398 43.8965 121.919 44.1309C122.44 44.3522 122.921 44.6257 123.364 44.9512C123.82 45.2767 124.197 45.6869 124.497 46.1816C124.796 46.6634 124.946 47.2884 124.946 48.0566Z" fill="white"/>
<path d="M133.657 52.002L129.653 46.7285V52.002H127.27V36.8262H129.653V46.2402L133.188 40.9863H135.844L131.977 46.4746L136.352 52.002H133.657Z" fill="white"/>
<path d="M141.118 52.002H138.735V40.9863H141.118V52.002ZM141.333 37.4707C141.333 37.8613 141.196 38.1934 140.923 38.4668C140.649 38.7272 140.317 38.8574 139.927 38.8574C139.536 38.8574 139.204 38.7207 138.93 38.4473C138.67 38.1738 138.54 37.8483 138.54 37.4707C138.54 37.0801 138.677 36.7481 138.95 36.4746C139.223 36.2012 139.549 36.0645 139.927 36.0645C140.317 36.0645 140.649 36.2012 140.923 36.4746C141.196 36.7481 141.333 37.0801 141.333 37.4707Z" fill="white"/>
<path d="M153.559 52.002H151.177V46.0059C151.177 45.5632 151.157 45.14 151.118 44.7363C151.079 44.3327 150.988 43.9746 150.844 43.6621C150.701 43.3496 150.506 43.1087 150.259 42.9395C150.011 42.7572 149.666 42.666 149.223 42.666C149.08 42.666 148.891 42.6856 148.657 42.7246C148.436 42.7637 148.201 42.8223 147.954 42.9004C147.719 42.9785 147.492 43.0762 147.27 43.1934C147.062 43.3106 146.906 43.4473 146.802 43.6035V52.002H144.438V40.9863H146.548L146.802 42.0996C146.958 41.9564 147.153 41.8132 147.387 41.6699C147.635 41.5137 147.902 41.377 148.188 41.2598C148.475 41.1426 148.768 41.0514 149.067 40.9863C149.367 40.9082 149.66 40.8691 149.946 40.8691C150.532 40.8691 151.027 40.9928 151.43 41.2402C151.834 41.4876 152.238 41.8066 152.641 42.1973C152.863 42.4186 153.032 42.679 153.149 42.9785C153.279 43.265 153.371 43.571 153.423 43.8965C153.488 44.209 153.527 44.528 153.54 44.8535C153.553 45.179 153.559 45.4981 153.559 45.8106V52.002Z" fill="white"/>
<path d="M172.036 50.5371C171.502 51.058 170.897 51.4486 170.219 51.709C169.542 51.9694 168.813 52.0996 168.032 52.0996C167.173 52.0996 166.378 51.9434 165.649 51.6309C164.933 51.3184 164.302 50.8561 163.755 50.2441C163.221 49.6322 162.798 48.8639 162.485 47.9395C162.186 47.015 162.036 45.9473 162.036 44.7363C162.036 43.5254 162.186 42.4642 162.485 41.5527C162.798 40.6283 163.221 39.86 163.755 39.2481C164.302 38.6361 164.94 38.1738 165.669 37.8613C166.398 37.5358 167.186 37.3731 168.032 37.3731C168.813 37.3731 169.542 37.5033 170.219 37.7637C170.897 38.0241 171.502 38.4147 172.036 38.9356L170.415 40.3809C170.089 40.0033 169.725 39.7298 169.321 39.5606C168.93 39.3913 168.52 39.3066 168.091 39.3066C167.609 39.3066 167.147 39.3978 166.704 39.5801C166.274 39.7624 165.884 40.0749 165.532 40.5176C165.193 40.9473 164.927 41.5072 164.731 42.1973C164.536 42.8874 164.432 43.7337 164.419 44.7363C164.432 45.7129 164.529 46.5462 164.712 47.2363C164.907 47.9264 165.167 48.4928 165.493 48.9356C165.831 49.3652 166.209 49.6843 166.626 49.8926C167.055 50.0879 167.505 50.1856 167.973 50.1856C168.442 50.1856 168.878 50.1009 169.282 49.9316C169.699 49.7624 170.076 49.4889 170.415 49.1113L172.036 50.5371Z" fill="white"/>
<path d="M183.266 48.7402C183.266 48.8444 183.273 49.0007 183.286 49.209C183.299 49.4043 183.325 49.6061 183.364 49.8145C183.403 50.0228 183.462 50.2116 183.54 50.3809C183.631 50.5501 183.748 50.6608 183.891 50.7129L183.266 52.0215C183.097 52.0215 182.915 51.9824 182.719 51.9043C182.537 51.8262 182.355 51.7155 182.173 51.5723C182.003 51.429 181.854 51.2728 181.723 51.1035C181.606 50.9212 181.515 50.7259 181.45 50.5176C181.359 50.7389 181.196 50.9473 180.962 51.1426C180.74 51.3249 180.486 51.4941 180.2 51.6504C179.913 51.7936 179.601 51.9043 179.262 51.9824C178.937 52.0606 178.631 52.0996 178.344 52.0996C177.902 52.0996 177.472 52.041 177.055 51.9238C176.652 51.8066 176.294 51.6178 175.981 51.3574C175.669 51.097 175.421 50.752 175.239 50.3223C175.07 49.8926 174.985 49.3652 174.985 48.7402C174.985 48.1413 175.109 47.627 175.356 47.1973C175.617 46.7546 175.942 46.3965 176.333 46.1231C176.736 45.8366 177.192 45.6283 177.7 45.4981C178.208 45.3548 178.722 45.2832 179.243 45.2832H180.903C180.903 44.6452 180.871 44.1374 180.805 43.7598C180.74 43.3822 180.63 43.1087 180.473 42.9395C180.317 42.7572 180.122 42.6465 179.887 42.6074C179.666 42.5553 179.399 42.5293 179.087 42.5293C178.8 42.5293 178.527 42.5684 178.266 42.6465C178.019 42.7116 177.785 42.7962 177.563 42.9004C177.355 42.9915 177.166 43.0957 176.997 43.2129C176.841 43.3301 176.723 43.4212 176.645 43.4863L175.766 42.1387C175.897 41.9955 176.092 41.8522 176.352 41.709C176.613 41.5527 176.912 41.416 177.251 41.2988C177.589 41.1816 177.954 41.0905 178.344 41.0254C178.748 40.9473 179.165 40.9082 179.594 40.9082C179.985 40.9082 180.363 40.9473 180.727 41.0254C181.105 41.1035 181.443 41.2337 181.743 41.416C182.055 41.5983 182.322 41.8457 182.544 42.1582C182.778 42.4577 182.941 42.8353 183.032 43.291C183.123 43.7468 183.182 44.209 183.208 44.6777C183.247 45.1335 183.266 45.5892 183.266 46.0449V48.7402ZM180.923 46.6699H179.673C179.412 46.6699 179.139 46.696 178.852 46.7481C178.566 46.8001 178.299 46.8978 178.052 47.041C177.804 47.1843 177.596 47.3926 177.427 47.666C177.27 47.9264 177.192 48.265 177.192 48.6816C177.192 49.3327 177.335 49.8014 177.622 50.0879C177.921 50.3744 178.351 50.5176 178.911 50.5176C179.302 50.5176 179.673 50.4134 180.024 50.2051C180.389 49.9968 180.688 49.7168 180.923 49.3652V46.6699Z" fill="white"/>
<path d="M193.188 43.3691C192.824 43.265 192.381 43.2064 191.86 43.1934C191.391 43.1934 190.923 43.252 190.454 43.3691C189.998 43.4733 189.634 43.6556 189.36 43.916V52.002H186.997V40.9863H189.106L189.36 42.1191C189.555 41.9238 189.757 41.7481 189.966 41.5918C190.187 41.4356 190.441 41.3119 190.727 41.2207C191.014 41.1165 191.352 41.0384 191.743 40.9863C192.134 40.9343 192.615 40.9082 193.188 40.9082V43.3691Z" fill="white"/>
<path d="M200.317 40.8691C201.203 40.8691 201.984 41.0514 202.661 41.416C203.338 41.7676 203.891 42.2428 204.321 42.8418C204.764 43.4277 205.076 44.1113 205.259 44.8926C205.454 45.6608 205.493 46.4616 205.376 47.2949H197.719C197.719 47.7116 197.798 48.0957 197.954 48.4473C198.11 48.7988 198.318 49.1048 198.579 49.3652C198.852 49.6126 199.171 49.808 199.536 49.9512C199.913 50.0944 200.317 50.166 200.747 50.166C200.89 50.166 201.066 50.153 201.274 50.127C201.496 50.0879 201.723 50.0293 201.958 49.9512C202.205 49.86 202.446 49.7494 202.68 49.6191C202.928 49.4889 203.143 49.3327 203.325 49.1504L204.184 50.459C203.755 50.9928 203.253 51.3965 202.68 51.6699C202.108 51.9434 201.378 52.0801 200.493 52.0801C199.777 52.0801 199.106 51.9369 198.481 51.6504C197.856 51.3509 197.322 50.9473 196.88 50.4395C196.437 49.9316 196.085 49.3392 195.825 48.6621C195.565 47.985 195.434 47.2559 195.434 46.4746C195.434 45.7064 195.565 44.9837 195.825 44.3066C196.085 43.6165 196.43 43.0176 196.86 42.5098C197.303 42.002 197.824 41.6048 198.423 41.3184C199.022 41.0189 199.653 40.8691 200.317 40.8691ZM203.188 45.5762C203.188 45.2246 203.123 44.8796 202.993 44.541C202.863 44.2025 202.68 43.8965 202.446 43.6231C202.225 43.3496 201.951 43.1348 201.626 42.9785C201.3 42.8093 200.949 42.7181 200.571 42.7051C200.167 42.7051 199.796 42.7832 199.458 42.9395C199.119 43.0957 198.826 43.304 198.579 43.5645C198.331 43.8249 198.136 44.1374 197.993 44.502C197.863 44.8535 197.798 45.2116 197.798 45.5762H203.188Z" fill="white"/>
<path d="M9.84958 21.4062L7.6823 25.6222L5.07709 21.6565L9.84958 21.4062Z" fill="url(#paint0_linear_1284_276)"/>
<path d="M7.50759 25.6638L3 24.3886L3.52644 22.694L4.88174 21.8198L7.50759 25.6638Z" fill="url(#paint1_linear_1284_276)"/>
<path d="M10.0002 21.4417L12.6902 25.4793L7.81242 25.7663L10.0002 21.4417Z" fill="url(#paint2_linear_1284_276)"/>
<path d="M12.6063 22.2287L12.1667 24.3519L10.1358 21.462L12.6063 22.2287Z" fill="url(#paint3_linear_1284_276)"/>
<path d="M8.00346 25.9269L12.7724 25.6613L10.2642 29.8819V28.8976L8.00346 25.9269Z" fill="url(#paint4_linear_1284_276)"/>
<path d="M7.68271 25.7497L9.62249 28.2476L4.68489 26.2194L7.68271 25.7497Z" fill="url(#paint5_linear_1284_276)"/>
<path d="M3.07725 24.514L7.05571 25.7143L4.46097 26.074L3.07725 24.514Z" fill="url(#paint6_linear_1284_276)"/>
<path d="M5.34732 21.3395L10.0717 14.4801H13.7935L15.3841 20.8314L5.34732 21.3395Z" fill="url(#paint7_linear_1284_276)"/>
<path d="M12.2383 24.5032L12.7627 22.2754L13.6651 24.1341L12.8951 25.4679L12.2383 24.5032Z" fill="url(#paint8_linear_1284_276)"/>
<path d="M13.0404 22.1652L10.1399 21.3509L15.526 21.022L13.0404 22.1652Z" fill="url(#paint9_linear_1284_276)"/>
<path d="M15.5902 21.149L13.6853 23.8209L12.9838 22.3889L15.5902 21.149Z" fill="url(#paint10_linear_1284_276)"/>
<path d="M13.986 14.4801H21.0446L15.6544 20.8314L13.986 14.4801Z" fill="url(#paint11_linear_1284_276)"/>
<path d="M23.7177 14.4616L26.4155 20.7937H16.0088L21.233 14.4616H23.7177Z" fill="url(#paint12_linear_1284_276)"/>
<path d="M26.7014 20.812L23.9321 14.4801L30.0924 14.4801L26.7014 20.812Z" fill="url(#paint13_linear_1284_276)"/>
<path d="M21.0842 30.4185L15.5807 20.9836H26.5876L21.0842 30.4185Z" fill="url(#paint14_linear_1284_276)"/>
<path d="M15.6255 21.3847L16.9471 23.6226L13.9616 23.7487L15.6255 21.3847Z" fill="url(#paint15_linear_1284_276)"/>
<path d="M18.8431 26.8375L13.986 23.9436L17.0458 23.7932L18.8431 26.8375Z" fill="url(#paint16_linear_1284_276)"/>
<path d="M13.9215 24.0864L18.8237 26.9897L10.0378 30.5874L13.9215 24.0864Z" fill="url(#paint17_linear_1284_276)"/>
<path d="M12.4027 29.8503V33.0023L9.4295 31.0703L12.4027 29.8503Z" fill="url(#paint18_linear_1284_276)"/>
<path d="M12.7668 40.7746L11.7401 39.6313L10.3889 39.3543L13.1187 37.0978L12.7668 40.7746Z" fill="url(#paint19_linear_1284_276)"/>
<path d="M9.36075 31.1695L11.441 32.5465L9.42999 34.0423L8.97325 33.3241L8.85247 32.6059L8.97325 31.7557L9.36075 31.1695Z" fill="#EB4764"/>
<path d="M10.2438 36.4168L12.2534 37.6624L10.3017 39.2898L9.84781 38.5699L9.72985 37.8512L9.85398 37.0015L10.2438 36.4168Z" fill="#EB4764"/>
<path d="M11.5476 32.5814L12.0609 34.9313L11.0984 35.0584L10.2 34.8678L9.75084 34.5503L9.49414 34.1057L11.5476 32.5814Z" fill="#EB4764"/>
<path d="M12.3403 37.5406L10.2698 36.2833L10.8424 35.5071L11.4834 35.1219L12.0609 35.0584H12.6384L12.3403 37.5406Z" fill="#EB4764"/>
<path d="M12.5101 29.7868L14.6918 28.8341L12.5101 33.026V29.7868Z" fill="url(#paint20_linear_1284_276)"/>
<path d="M11.5732 32.6137L13.0789 33.5468L14.3881 34.9776L12.1624 34.9154L11.5732 32.6137Z" fill="#EB4764"/>
<path d="M15.0768 35.1219L13.8576 36.3922L12.4459 37.5354L12.7026 35.0584L15.0768 35.1219Z" fill="#EB4764"/>
<path d="M14.8843 28.7706L17.7935 32.8568L12.5743 33.0895L14.8843 28.7706Z" fill="url(#paint21_linear_1284_276)"/>
<path d="M19.7612 28.5165L17.9455 32.8382L14.9485 28.7706L19.7612 28.5165Z" fill="url(#paint22_linear_1284_276)"/>
<path d="M19.7612 28.453L18.9911 27.0557L14.9485 28.7071L19.7612 28.453Z" fill="url(#paint23_linear_1284_276)"/>
<path d="M12.5968 33.1821L16.2788 33.1202L19.2502 34.9776H14.4701L13.1136 33.4917L12.5968 33.1821Z" fill="url(#paint24_linear_1284_276)"/>
<path d="M15.0768 35.2489L15.0072 38.8372L12.8951 40.8381L13.2159 37.0273L13.9218 36.4557L15.0768 35.2489Z" fill="url(#paint25_linear_1284_276)"/>
<path d="M19.8346 28.5611L21.0415 30.4891L20.9145 31.4531L20.7874 32.2243L18.056 32.8669L19.8346 28.5611Z" fill="url(#paint26_linear_1284_276)"/>
<path d="M16.406 33.0493L17.9644 32.9624L20.7237 32.3273L19.9537 34.5503L19.3762 34.9314L16.406 33.0493Z" fill="url(#paint27_linear_1284_276)"/>
<path d="M15.2052 35.1219L18.5156 36.9404L15.141 38.7421L15.2052 35.1219Z" fill="url(#paint28_linear_1284_276)"/>
<path d="M15.2694 35.0584L19.2478 35.1219L18.542 36.8367L15.2694 35.0584Z" fill="url(#paint29_linear_1284_276)"/>
<path d="M16.3602 46.8718L16.8094 50.746L14.6919 49.73L13.3443 48.2056L12.7026 46.4907V44.6488L16.3602 46.8718Z" fill="url(#paint30_linear_1284_276)"/>
<path d="M14.8843 45.7921L12.7419 44.4942L13.2159 43.1245L13.4726 42.3624L13.4084 41.6637L13.9218 42.1083L14.8843 45.7921Z" fill="url(#paint31_linear_1284_276)"/>
<path d="M14.756 39.1867L13.9218 42.0448L13.4084 41.5367L12.9515 40.9257L13.6651 40.2665L14.756 39.1867Z" fill="url(#paint32_linear_1284_276)"/>
<path d="M20.4973 48.3173L19.0553 51H17.9003L16.9377 50.746L16.4885 46.9353L20.4973 48.3173Z" fill="url(#paint33_linear_1284_276)"/>
<path d="M26.7566 21.047L32.2232 30.4818H21.2901L26.7566 21.047Z" fill="url(#paint34_linear_1284_276)"/>
<path d="M22.6488 32.3908L20.082 34.4868L20.9162 32.2638L21.1729 30.5489H24.7022L22.6488 32.3908Z" fill="url(#paint35_linear_1284_276)"/>
<path d="M18.6745 37.0883L21.5533 44.716L20.5297 48.1485L16.4353 46.75L18.4185 42.4913L18.6745 37.0883Z" fill="url(#paint36_linear_1284_276)"/>
<path d="M18.2853 42.2989L16.2961 46.6813L15.0768 45.8556L14.0502 42.0448L14.9485 38.9962L18.542 37.0908L18.2853 42.2989Z" fill="url(#paint37_linear_1284_276)"/>
<path d="M37.8802 20.9532L32.4348 30.4168L26.8772 21.0173L37.8802 20.9532Z" fill="url(#paint38_linear_1284_276)"/>
<path d="M37.7986 20.7373L26.8839 20.8314L30.2207 14.4801H33.8142L37.7986 20.7373Z" fill="url(#paint39_linear_1284_276)"/>
<path d="M19.8253 36.5827L19.1836 38.1705L18.6703 36.9003L19.3762 35.1219L20.5312 34.2962L19.8253 36.5827Z" fill="url(#paint40_linear_1284_276)"/>
<path d="M27.0855 39.3175L21.6862 44.6488L19.2478 38.234L19.9537 36.5827L20.6595 34.2327L27.0855 39.3175Z" fill="url(#paint41_linear_1284_276)"/>
<path d="M29.0015 30.549L27.2048 39.2502L20.7391 34.1511L24.8947 30.549H29.0015Z" fill="url(#paint42_linear_1284_276)"/>
<path d="M29.1298 30.549H32.4024L33.3008 37.5989L27.3331 39.2502L29.1298 30.549Z" fill="url(#paint43_linear_1284_276)"/>
<path d="M27.2048 39.4408L30.3061 44.9437L20.7237 48.1421L21.7504 44.7759L27.2048 39.4408Z" fill="url(#paint44_linear_1284_276)"/>
<path d="M20.7161 48.298L30.3491 45.0299L24.9589 48.298L19.312 50.873L20.7161 48.298Z" fill="url(#paint45_linear_1284_276)"/>
<path d="M27.3579 39.423L33.3008 37.7894L34.5842 42.4894L30.4774 44.8394L27.3579 39.423Z" fill="url(#paint46_linear_1284_276)"/>
<path d="M32.595 30.5489L46.1988 32.3273L45.108 35.884L43.1829 39.1232L40.167 40.6475L34.8409 42.2989L33.4933 37.6624L32.595 30.5489Z" fill="url(#paint47_linear_1284_276)"/>
<path d="M38.1361 21.047L43.4505 23.8438L47.7405 27.022L47.0361 29.3103L46.2677 32.1071L32.7277 30.3591L38.1361 21.047Z" fill="url(#paint48_linear_1284_276)"/>
<path d="M38.1456 20.8887L34.0067 14.4801H42.0277L47.8029 26.9287L43.3752 23.626L38.1456 20.8887Z" fill="url(#paint49_linear_1284_276)"/>
<path d="M50.4339 14.4801V20.6409L47.8673 26.8652L42.156 14.4801H50.4339Z" fill="url(#paint50_linear_1284_276)"/>
<path d="M43.2296 39.2835L44.5842 48.1181L37.1323 50.0883L34.886 48.5631L33.474 48.3725L31.7411 48.5631L20.1885 50.597L25.1946 48.4358L30.5217 45.0673L34.7576 42.5249L40.1488 40.8089L43.2296 39.2835Z" fill="url(#paint51_linear_1284_276)"/>
<path d="M47.8763 27.0414L53.0291 41.8885L44.7844 47.9796L44.4623 45.8223L43.3902 39.1601L45.3642 36.1146L46.5236 32.3711L47.8763 27.0414Z" fill="url(#paint52_linear_1284_276)"/>
<path d="M47.9963 27.0492L50.6834 20.9563V14.546H54.9057L53.1785 20.6389L52.6664 25.2086L53.1785 29.5245L54.9057 34.475L56.6972 36.9502L59 38.7273L53.1785 41.9007L50.6834 34.475L47.9963 27.0492Z" fill="url(#paint53_linear_1284_276)"/>
<path d="M38.6987 11L40.2882 15.2521L44.5842 16.8255L40.2882 18.399L38.6987 22.6511L37.109 18.399L32.813 16.8255L37.109 15.2521L38.6987 11Z" fill="white"/>
<path d="M12.6063 22.2287L12.1667 24.3519L10.1358 21.462L12.6063 22.2287Z" fill="url(#paint54_linear_1284_276)"/>
<defs>
<linearGradient id="paint0_linear_1284_276" x1="240.895" y1="0" x2="186.285" y2="123.136" gradientUnits="userSpaceOnUse">
<stop stop-color="#FFC7D0" stop-opacity="0.58"/>
<stop offset="1" stop-color="#FFB4C1"/>
</linearGradient>
<linearGradient id="paint1_linear_1284_276" x1="240.895" y1="62" x2="193.15" y2="-53.8864" gradientUnits="userSpaceOnUse">
<stop stop-color="#FFD9DF" stop-opacity="0.58"/>
<stop offset="1" stop-color="#FF7B92"/>
</linearGradient>
<linearGradient id="paint2_linear_1284_276" x1="108.049" y1="-3.50758e-08" x2="109.418" y2="80.1832" gradientUnits="userSpaceOnUse">
<stop stop-color="#FFD9DF" stop-opacity="0.58"/>
<stop offset="1" stop-color="#FF7B92"/>
</linearGradient>
<linearGradient id="paint3_linear_1284_276" x1="225.955" y1="11.772" x2="209.139" y2="65.4803" gradientUnits="userSpaceOnUse">
<stop stop-color="#FFD9DF" stop-opacity="0.58"/>
<stop offset="1" stop-color="#FF7B92"/>
<stop offset="1" stop-color="#FF7189"/>
</linearGradient>
<linearGradient id="paint4_linear_1284_276" x1="-1.82662" y1="4.94203" x2="55.6181" y2="105.667" gradientUnits="userSpaceOnUse">
<stop stop-color="#FF6079" stop-opacity="0.58"/>
<stop offset="0.0001" stop-color="#FB7F93" stop-opacity="0.619375"/>
<stop offset="1" stop-color="#FF3558"/>
</linearGradient>
<linearGradient id="paint5_linear_1284_276" x1="151.451" y1="1.14351" x2="142.232" y2="42.9907" gradientUnits="userSpaceOnUse">
<stop stop-color="#FFD9DF" stop-opacity="0.58"/>
<stop offset="1" stop-color="#FF7B92"/>
</linearGradient>
<linearGradient id="paint6_linear_1284_276" x1="107.816" y1="-14.8528" x2="118.752" y2="64.5319" gradientUnits="userSpaceOnUse">
<stop stop-color="#FF667E" stop-opacity="0.58"/>
<stop offset="1" stop-color="#FF7B92"/>
</linearGradient>
<linearGradient id="paint7_linear_1284_276" x1="5.60562" y1="65.6192" x2="93.4953" y2="-70.515" gradientUnits="userSpaceOnUse">
<stop stop-color="#FFD9DF" stop-opacity="0.58"/>
<stop offset="1" stop-color="#FF7B92"/>
</linearGradient>
<linearGradient id="paint8_linear_1284_276" x1="-13.9009" y1="32.993" x2="74.5873" y2="-86.7759" gradientUnits="userSpaceOnUse">
<stop stop-color="#FF6C84" stop-opacity="0.58"/>
<stop offset="1" stop-color="#FF7B92"/>
</linearGradient>
<linearGradient id="paint9_linear_1284_276" x1="121.207" y1="62.1737" x2="119.983" y2="2.48194" gradientUnits="userSpaceOnUse">
<stop stop-color="#FFD9DF" stop-opacity="0.58"/>
<stop offset="1" stop-color="#FF7B92"/>
</linearGradient>
<linearGradient id="paint10_linear_1284_276" x1="220.258" y1="-4.77322" x2="197.709" y2="92.7294" gradientUnits="userSpaceOnUse">
<stop stop-color="#FFD9DF" stop-opacity="0.58"/>
<stop offset="1" stop-color="#FF7B92"/>
</linearGradient>
<linearGradient id="paint11_linear_1284_276" x1="-10.1848" y1="4.99401" x2="36.511" y2="100.222" gradientUnits="userSpaceOnUse">
<stop stop-color="#FFD9DF" stop-opacity="0.58"/>
<stop offset="1" stop-color="#FF7B92"/>
</linearGradient>
<linearGradient id="paint12_linear_1284_276" x1="120.447" y1="0" x2="120.447" y2="62" gradientUnits="userSpaceOnUse">
<stop stop-color="#FFD9DF" stop-opacity="0.58"/>
<stop offset="1" stop-color="#FF7B92"/>
</linearGradient>
<linearGradient id="paint13_linear_1284_276" x1="88.9114" y1="61.3888" x2="90.9977" y2="-4.72997" gradientUnits="userSpaceOnUse">
<stop stop-color="#FFD9DF" stop-opacity="0.58"/>
<stop offset="1" stop-color="#FF7B92"/>
</linearGradient>
<linearGradient id="paint14_linear_1284_276" x1="120.448" y1="62" x2="120.448" y2="-20.6666" gradientUnits="userSpaceOnUse">
<stop stop-color="#FFD9DF" stop-opacity="0.58"/>
<stop offset="1" stop-color="#FF7B92"/>
</linearGradient>
<linearGradient id="paint15_linear_1284_276" x1="120.448" y1="0" x2="120.448" y2="62" gradientUnits="userSpaceOnUse">
<stop stop-color="#FFD9DF" stop-opacity="0.58"/>
<stop offset="1" stop-color="#FF7B92"/>
</linearGradient>
<linearGradient id="paint16_linear_1284_276" x1="262.777" y1="46.2812" x2="152.855" y2="-106.739" gradientUnits="userSpaceOnUse">
<stop stop-color="#FFD9DF" stop-opacity="0.58"/>
<stop offset="1" stop-color="#FF7B92"/>
</linearGradient>
<linearGradient id="paint17_linear_1284_276" x1="120.447" y1="0" x2="120.447" y2="62" gradientUnits="userSpaceOnUse">
<stop stop-color="#FFD9DF" stop-opacity="0.58"/>
<stop offset="1" stop-color="#FF7B92"/>
</linearGradient>
<linearGradient id="paint18_linear_1284_276" x1="238.816" y1="-0.327472" x2="229.273" y2="60.1664" gradientUnits="userSpaceOnUse">
<stop stop-color="#FFD9DF" stop-opacity="0.58"/>
<stop offset="1" stop-color="#FF7B92"/>
</linearGradient>
<linearGradient id="paint19_linear_1284_276" x1="268.968" y1="52.6594" x2="260.169" y2="-3.04421" gradientUnits="userSpaceOnUse">
<stop stop-color="#FFD9DF" stop-opacity="0.58"/>
<stop offset="1" stop-color="#FF7B92"/>
</linearGradient>
<linearGradient id="paint20_linear_1284_276" x1="36.6821" y1="11.3427" x2="40.2509" y2="58.9843" gradientUnits="userSpaceOnUse">
<stop stop-color="#FFD9DF" stop-opacity="0.58"/>
<stop offset="1" stop-color="#FF7B92"/>
</linearGradient>
<linearGradient id="paint21_linear_1284_276" x1="108.356" y1="-0.0326137" x2="109.518" y2="61.155" gradientUnits="userSpaceOnUse">
<stop stop-color="#FFD9DF" stop-opacity="0.58"/>
<stop offset="1" stop-color="#FF7B92"/>
</linearGradient>
<linearGradient id="paint22_linear_1284_276" x1="238.869" y1="-0.79506" x2="205.503" y2="84.2598" gradientUnits="userSpaceOnUse">
<stop stop-color="#FFD9DF" stop-opacity="0.58"/>
<stop offset="1" stop-color="#FFADBB"/>
</linearGradient>
<linearGradient id="paint23_linear_1284_276" x1="242.304" y1="39.3598" x2="5.17294" y2="13.8757" gradientUnits="userSpaceOnUse">
<stop stop-color="#FFD9DF" stop-opacity="0.58"/>
<stop offset="1" stop-color="#FF7B92"/>
</linearGradient>
<linearGradient id="paint24_linear_1284_276" x1="120.448" y1="0" x2="120.448" y2="62" gradientUnits="userSpaceOnUse">
<stop stop-color="#FFD9DF" stop-opacity="0.58"/>
<stop offset="1" stop-color="#FF7B92"/>
</linearGradient>
<linearGradient id="paint25_linear_1284_276" x1="237.596" y1="31.6216" x2="65.7758" y2="-60.577" gradientUnits="userSpaceOnUse">
<stop stop-color="#FFD9DF" stop-opacity="0.58"/>
<stop offset="1" stop-color="#FF7B92"/>
</linearGradient>
<linearGradient id="paint26_linear_1284_276" x1="120.448" y1="0" x2="120.448" y2="62" gradientUnits="userSpaceOnUse">
<stop stop-color="#FFD9DF" stop-opacity="0.58"/>
<stop offset="1" stop-color="#FF7B92"/>
</linearGradient>
<linearGradient id="paint27_linear_1284_276" x1="0.72218" y1="15.5029" x2="197.983" y2="100.083" gradientUnits="userSpaceOnUse">
<stop stop-color="#FD758A" stop-opacity="0.58"/>
<stop offset="1" stop-color="#FC7A90"/>
</linearGradient>
<linearGradient id="paint28_linear_1284_276" x1="7.27673" y1="-0.366116" x2="15.7221" y2="61.7563" gradientUnits="userSpaceOnUse">
<stop stop-color="#FFD9DF" stop-opacity="0.58"/>
<stop offset="1" stop-color="#FF7B92"/>
</linearGradient>
<linearGradient id="paint29_linear_1284_276" x1="0.569599" y1="-1.22055" x2="198.935" y2="91.7463" gradientUnits="userSpaceOnUse">
<stop stop-color="#FF8D9F" stop-opacity="0.58"/>
<stop offset="1" stop-color="#FF7B92"/>
</linearGradient>
<linearGradient id="paint30_linear_1284_276" x1="297.9" y1="12.0312" x2="273.371" y2="101.092" gradientUnits="userSpaceOnUse">
<stop stop-color="#FFD9DF" stop-opacity="0.58"/>
<stop offset="1" stop-color="#FF7B92"/>
</linearGradient>
<linearGradient id="paint31_linear_1284_276" x1="322.349" y1="44.7121" x2="302.603" y2="-48.3188" gradientUnits="userSpaceOnUse">
<stop stop-color="#FFD9DF" stop-opacity="0.58"/>
<stop offset="1" stop-color="#FF7B92"/>
</linearGradient>
<linearGradient id="paint32_linear_1284_276" x1="309.95" y1="19.6745" x2="281.923" y2="118.046" gradientUnits="userSpaceOnUse">
<stop stop-color="#FFD9DF" stop-opacity="0.58"/>
<stop offset="1" stop-color="#FF7B92"/>
</linearGradient>
<linearGradient id="paint33_linear_1284_276" x1="243.24" y1="26.034" x2="54.1935" y2="115.57" gradientUnits="userSpaceOnUse">
<stop stop-color="#FFD9DF" stop-opacity="0.58"/>
<stop offset="1" stop-color="#FF7B92"/>
</linearGradient>
<linearGradient id="paint34_linear_1284_276" x1="120.448" y1="0" x2="120.448" y2="82.6669" gradientUnits="userSpaceOnUse">
<stop stop-color="#FFD9DF" stop-opacity="0.58"/>
<stop offset="1" stop-color="#FF7B92"/>
</linearGradient>
<linearGradient id="paint35_linear_1284_276" x1="224.725" y1="35.271" x2="49.1568" y2="-45.2205" gradientUnits="userSpaceOnUse">
<stop stop-color="#FFC8D0" stop-opacity="0.58"/>
<stop offset="1" stop-color="#FF99AB"/>
</linearGradient>
<linearGradient id="paint36_linear_1284_276" x1="120.448" y1="0" x2="120.448" y2="62" gradientUnits="userSpaceOnUse">
<stop stop-color="#FFD9DF" stop-opacity="0.58"/>
<stop offset="1" stop-color="#FF7B92"/>
</linearGradient>
<linearGradient id="paint37_linear_1284_276" x1="249.385" y1="30.7297" x2="17.3529" y2="94.8348" gradientUnits="userSpaceOnUse">
<stop stop-color="#FFD9DF" stop-opacity="0.58"/>
<stop offset="1" stop-color="#FF7B92"/>
</linearGradient>
<linearGradient id="paint38_linear_1284_276" x1="240.895" y1="0" x2="175.175" y2="129.856" gradientUnits="userSpaceOnUse">
<stop stop-color="#FFD9DF" stop-opacity="0.58"/>
<stop offset="1" stop-color="#FF7B92"/>
</linearGradient>
<linearGradient id="paint39_linear_1284_276" x1="230.602" y1="69.0681" x2="138.166" y2="-50.0632" gradientUnits="userSpaceOnUse">
<stop stop-color="#FFD0D8" stop-opacity="0.58"/>
<stop offset="1" stop-color="#F9B6C2"/>
</linearGradient>
<linearGradient id="paint40_linear_1284_276" x1="184.231" y1="32.8479" x2="174.289" y2="-7.31317" gradientUnits="userSpaceOnUse">
<stop stop-color="#FFD9DF" stop-opacity="0.58"/>
<stop offset="1" stop-color="#FF7B92"/>
</linearGradient>
<linearGradient id="paint41_linear_1284_276" x1="217.784" y1="19.0216" x2="173.536" y2="109.967" gradientUnits="userSpaceOnUse">
<stop stop-color="#FAA4B2" stop-opacity="0.58"/>
<stop offset="0.6905" stop-color="#FFA0B0" stop-opacity="0.98483"/>
<stop offset="1" stop-color="#FF9FB0"/>
</linearGradient>
<linearGradient id="paint42_linear_1284_276" x1="239.003" y1="-0.362769" x2="225.687" y2="69.1245" gradientUnits="userSpaceOnUse">
<stop stop-color="#FFD9DF" stop-opacity="0.58"/>
<stop offset="1" stop-color="#FFA6B5"/>
</linearGradient>
<linearGradient id="paint43_linear_1284_276" x1="39.3341" y1="2.21696" x2="43.4222" y2="63.4233" gradientUnits="userSpaceOnUse">
<stop stop-color="#FFD9DF" stop-opacity="0.58"/>
<stop offset="1" stop-color="#FF7B92"/>
</linearGradient>
<linearGradient id="paint44_linear_1284_276" x1="69.2187" y1="9.10402" x2="73.7213" y2="55.4511" gradientUnits="userSpaceOnUse">
<stop stop-color="#FFD9DF" stop-opacity="0.58"/>
<stop offset="1" stop-color="#FF7B92"/>
</linearGradient>
<linearGradient id="paint45_linear_1284_276" x1="102.653" y1="15.5167" x2="108.776" y2="38.5287" gradientUnits="userSpaceOnUse">
<stop stop-color="#FF677F" stop-opacity="0.58"/>
<stop offset="1" stop-color="#FF7B92"/>
</linearGradient>
<linearGradient id="paint46_linear_1284_276" x1="-4.11186" y1="17.6172" x2="101.648" y2="151.407" gradientUnits="userSpaceOnUse">
<stop stop-color="#FF7086" stop-opacity="0.58"/>
<stop offset="1" stop-color="#FF7B92"/>
</linearGradient>
<linearGradient id="paint47_linear_1284_276" x1="-6.41066" y1="2.46261" x2="32.8438" y2="104.65" gradientUnits="userSpaceOnUse">
<stop stop-color="#FFD9DF" stop-opacity="0.58"/>
<stop offset="1" stop-color="#FD385A"/>
</linearGradient>
<linearGradient id="paint48_linear_1284_276" x1="120.446" y1="0" x2="120.446" y2="62" gradientUnits="userSpaceOnUse">
<stop stop-color="#FFD9DF" stop-opacity="0.58"/>
<stop offset="1" stop-color="#FF7B92"/>
</linearGradient>
<linearGradient id="paint49_linear_1284_276" x1="35.5" y1="21.5" x2="50.5" y2="16" gradientUnits="userSpaceOnUse">
<stop stop-color="#FF4764" stop-opacity="0.58"/>
<stop offset="1" stop-color="#FF7B92"/>
</linearGradient>
<linearGradient id="paint50_linear_1284_276" x1="280.929" y1="12.2367" x2="257.216" y2="89.8187" gradientUnits="userSpaceOnUse">
<stop stop-color="#FFD9DF" stop-opacity="0.58"/>
<stop offset="1" stop-color="#FF98AA"/>
</linearGradient>
<linearGradient id="paint51_linear_1284_276" x1="120.449" y1="0" x2="120.449" y2="62" gradientUnits="userSpaceOnUse">
<stop stop-color="#FFD9DF" stop-opacity="0.58"/>
<stop offset="1" stop-color="#FF516F"/>
</linearGradient>
<linearGradient id="paint52_linear_1284_276" x1="120.448" y1="0" x2="120.448" y2="62" gradientUnits="userSpaceOnUse">
<stop stop-color="#FA677E" stop-opacity="0.58"/>
<stop offset="1" stop-color="#FF7B92"/>
</linearGradient>
<linearGradient id="paint53_linear_1284_276" x1="120.452" y1="0" x2="120.452" y2="62" gradientUnits="userSpaceOnUse">
<stop stop-color="#FFD9DF" stop-opacity="0.58"/>
<stop offset="1" stop-color="#FF2E52"/>
</linearGradient>
<linearGradient id="paint54_linear_1284_276" x1="120.448" y1="0" x2="120.448" y2="62" gradientUnits="userSpaceOnUse">
<stop stop-color="#FFACBA"/>
<stop offset="1" stop-color="#FF7B92"/>
</linearGradient>
</defs>
</svg>
